<svg width="99" height="30" viewBox="0 0 99 30" fill="none" xmlns="http://www.w3.org/2000/svg">
<path fill-rule="evenodd" clip-rule="evenodd" d="M15.7999 16.4951C15.3189 14.1521 13.5789 11.8421 12.3859 11.7031C10.9169 12.1771 10.2259 12.9431 8.54688 14.1831C7.43788 14.9991 6.54688 15.3451 6.54688 15.3451C6.54688 15.3451 8.67688 19.3221 11.4129 18.3621C12.6109 17.9431 13.5909 15.5991 15.7999 16.4951" fill="#23B175"/>
<path fill-rule="evenodd" clip-rule="evenodd" d="M19.0419 19.4817C21.0769 15.5407 24.4919 13.5597 24.4919 13.5597C24.4919 13.5597 22.7399 11.9097 19.7219 11.0927C16.0929 10.1137 13.6289 11.1027 13.6289 11.1027C13.6289 11.1027 16.2339 12.4287 17.0189 16.7617C17.4789 19.3017 18.9199 19.4817 19.0419 19.4817" fill="#EC5956"/>
<path fill-rule="evenodd" clip-rule="evenodd" d="M14.2673 1.16956C12.6383 1.07856 10.8643 1.23056 8.94027 1.70956C3.40327 3.09556 -2.09873 8.98556 1.20027 13.5616C4.20327 17.5036 8.77827 12.1606 11.9243 10.5596C10.6993 7.41256 11.8713 4.02256 14.2673 1.16956" fill="#27A8E0"/>
<path fill-rule="evenodd" clip-rule="evenodd" d="M15.5953 1.30078C13.2293 3.92678 11.9913 7.07178 12.9563 10.1138C19.7313 7.58278 25.3103 12.6928 25.3103 12.6928C25.3103 12.6928 26.6633 9.18778 23.9873 5.84478C22.3803 3.83578 19.4973 1.86078 15.5953 1.30078" fill="#FAAD40"/>
<path fill-rule="evenodd" clip-rule="evenodd" d="M34.7602 10.114V13.964C35.1142 14.006 35.7152 14.067 36.4452 14.067C38.1722 14.067 39.1112 13.341 39.1112 11.967C39.1112 10.738 38.1722 10.114 36.5702 10.114H34.7602ZM34.7602 4.205V7.887H36.4852C37.6722 7.887 38.6512 7.286 38.6512 5.954C38.6512 4.767 37.7362 4.143 36.3602 4.143C35.7792 4.143 35.2182 4.165 34.7602 4.205ZM32.1992 1.853C33.0132 1.812 34.9472 1.75 36.4022 1.75C39.8782 1.75 41.1912 3.332 41.1912 5.35C41.1912 7.013 40.3562 8.076 39.1112 8.658V8.699C40.5442 9.054 41.6682 10.155 41.6682 12.09C41.6682 15.087 39.3392 16.462 36.2572 16.462C34.9252 16.462 33.0552 16.419 32.1992 16.357V1.853Z" fill="white"/>
<path fill-rule="evenodd" clip-rule="evenodd" d="M43.4941 16.3767V7.01367H45.8851V12.9437L50.2551 7.01367H52.6491V16.3767H50.2551V10.4487L45.8851 16.3767H43.4941Z" fill="white"/>
<path fill-rule="evenodd" clip-rule="evenodd" d="M60.2913 11.4657L64.3263 16.3767H61.2083L57.5003 11.6537L60.8733 7.01367H63.8913L60.2913 11.4657ZM55.0273 16.3767H57.4183V7.01367H55.0273V16.3767Z" fill="white"/>
<path fill-rule="evenodd" clip-rule="evenodd" d="M65.4551 16.3767V7.01367H67.8451V12.9437L72.2191 7.01367H74.6101V16.3767H72.2191V10.4487L67.8451 16.3767H65.4551Z" fill="white"/>
<path fill-rule="evenodd" clip-rule="evenodd" d="M82.3378 16.3767C80.9648 19.7287 80.0888 20.5387 78.7168 20.5387C77.8638 20.5387 77.2398 20.2047 76.6968 19.8127L77.4678 17.9997C77.7168 18.1457 78.0718 18.3337 78.4448 18.3337C79.0478 18.3337 79.4838 17.8557 79.8808 16.8777L80.0888 16.3767L75.7598 7.01367H78.6318L80.8178 12.1327C81.0068 12.5907 81.1318 13.0277 81.2748 13.4867C81.3578 13.0497 81.4418 12.5907 81.6078 12.1117L83.2948 7.01367H86.0208L82.3378 16.3767Z" fill="white"/>
<path fill-rule="evenodd" clip-rule="evenodd" d="M87.1699 7.01367H89.3329L92.5159 10.9267L95.5339 7.01367H97.6369V16.3767H95.2409V10.6567L92.4769 14.1517H92.4129L89.5619 10.6567V16.3767H87.1699V7.01367Z" fill="white"/>
<path fill-rule="evenodd" clip-rule="evenodd" d="M0.470703 23.4746H4.7897V24.0756H2.9497V28.7336H2.3107V24.0756H0.470703V23.4746Z" fill="white"/>
<path fill-rule="evenodd" clip-rule="evenodd" d="M6.66534 24.075V26.102C6.92034 26.126 7.16834 26.141 7.43234 26.141C8.20534 26.141 8.67134 25.743 8.67134 25.082C8.67134 24.458 8.29534 24.06 7.46134 24.06C7.25134 24.06 6.91334 24.067 6.66534 24.075V24.075ZM6.02734 28.733V23.474C6.31934 23.474 7.07134 23.459 7.40134 23.459C8.90334 23.459 9.34734 24.27 9.34734 25.089C9.34734 25.945 8.73834 26.742 7.45434 26.742C7.24334 26.742 6.92834 26.734 6.66534 26.711V28.733H6.02734Z" fill="white"/>
<path fill-rule="evenodd" clip-rule="evenodd" d="M10.8848 23.4746H13.8518V24.0756H11.5238V25.7726H13.6268V26.3736H11.5238V28.1316H13.9268V28.7336H10.8848V23.4746Z" fill="white"/>
<path fill-rule="evenodd" clip-rule="evenodd" d="M19.1081 26.3516H16.2161V28.7336H15.5781V23.4746H16.2161V25.7496H19.1081V23.4746H19.7471V28.7336H19.1081V26.3516Z" fill="white"/>
<path fill-rule="evenodd" clip-rule="evenodd" d="M22.5934 26.5394H24.4864L23.5404 24.2924L22.5934 26.5394ZM23.2844 23.4434H23.8324L26.0934 28.7324H25.4104L24.7344 27.1394H22.3384L21.6694 28.7324H21.0234L23.2844 23.4434Z" fill="white"/>
<path fill-rule="evenodd" clip-rule="evenodd" d="M31.1466 25.9836L33.3546 28.7336H32.6116L30.4486 25.9906L32.5296 23.4746H33.2726L31.1466 25.9836ZM29.6746 28.7336H30.3136V23.4746H29.6746V28.7336ZM26.7226 23.4746H27.4666L29.5466 25.9906L27.3836 28.7336H26.6406L28.8486 25.9906L26.7226 23.4746Z" fill="white"/>
<path fill-rule="evenodd" clip-rule="evenodd" d="M34.668 23.4746H37.635V24.0756H35.307V25.7726H37.41V26.3736H35.307V28.1316H37.71V28.7336H34.668V23.4746Z" fill="white"/>
<path fill-rule="evenodd" clip-rule="evenodd" d="M40.0003 24.075V26.102C40.2553 26.126 40.5033 26.141 40.7663 26.141C41.5403 26.141 42.0053 25.743 42.0053 25.082C42.0053 24.458 41.6293 24.06 40.7953 24.06C40.5853 24.06 40.2483 24.067 40.0003 24.075V24.075ZM39.3613 28.733V23.474C39.6543 23.474 40.4053 23.459 40.7353 23.459C42.2383 23.459 42.6813 24.27 42.6813 25.089C42.6813 25.945 42.0723 26.742 40.7893 26.742C40.5783 26.742 40.2633 26.734 40.0003 26.711V28.733H39.3613Z" fill="white"/>
<mask id="mask0_0_360" style="mask-type:alpha" maskUnits="userSpaceOnUse" x="0" y="1" width="99" height="29">
<path fill-rule="evenodd" clip-rule="evenodd" d="M0 29.709H98.07V1H0V29.709Z" fill="white"/>
</mask>
<g mask="url(#mask0_0_360)">
<path fill-rule="evenodd" clip-rule="evenodd" d="M48.3517 28.7336H48.9907V23.4746H48.3517V28.7336ZM44.8587 26.0346V28.1236C45.0617 28.1316 45.2497 28.1456 45.4897 28.1456C46.3537 28.1456 46.8267 27.7696 46.8267 27.0266C46.8267 26.3576 46.3607 25.9896 45.5127 25.9896C45.3397 25.9896 45.1217 26.0056 44.8587 26.0346V26.0346ZM44.8587 25.4266C45.1447 25.4046 45.3847 25.3896 45.5577 25.3896C46.8787 25.3896 47.5027 26.0196 47.5027 27.0126C47.5027 28.1166 46.7217 28.7476 45.4157 28.7476C44.9637 28.7476 44.5277 28.7326 44.2207 28.7326V23.4746H44.8587V25.4266Z" fill="white"/>
<path fill-rule="evenodd" clip-rule="evenodd" d="M53.6001 28.1316H56.2661V24.0746H54.4261L54.3591 25.0146C54.2311 26.8236 53.7951 27.8916 53.6001 28.1316V28.1316ZM52.3301 28.1316H52.8941C53.1111 27.8606 53.6451 26.7276 53.7571 24.5266L53.8101 23.4746H56.9051V28.1316H57.6191V29.7086H57.0171V28.7336H52.9321V29.7086H52.3301V28.1316Z" fill="white"/>
<path fill-rule="evenodd" clip-rule="evenodd" d="M62.1974 24.0756H60.2894L60.1994 25.0676C59.8914 28.4106 59.1854 28.8396 58.3594 28.7336L58.3664 28.0946C58.7424 28.1326 59.3734 27.9436 59.6134 24.5266L59.6884 23.4746H62.8364V28.7336H62.1974V24.0756Z" fill="white"/>
<path fill-rule="evenodd" clip-rule="evenodd" d="M67.2515 26.1772V24.0742C67.0795 24.0672 66.7645 24.0522 66.5385 24.0522C65.7195 24.0522 65.2845 24.5322 65.2845 25.1562C65.2845 25.7122 65.7345 26.1022 66.1925 26.1772H67.2515ZM67.2515 26.7802H66.2685L64.9085 28.7332H64.1875L65.6445 26.6662C65.1035 26.4482 64.6075 25.9452 64.6075 25.1942C64.6075 24.2472 65.2385 23.4512 66.6585 23.4512C67.0115 23.4512 67.5835 23.4742 67.8905 23.4742V28.7332H67.2515V26.7802Z" fill="white"/>
<path fill-rule="evenodd" clip-rule="evenodd" d="M71.9062 23.4746H72.5523L74.5273 26.1706L76.4202 23.4746H77.0283V28.7336H76.3892V24.4816L74.5273 27.0946H74.4293L72.5443 24.5026V28.7336H71.9062V23.4746Z" fill="white"/>
<path fill-rule="evenodd" clip-rule="evenodd" d="M81.2484 28.2064C82.4504 28.2064 83.2534 27.2904 83.2534 26.1024C83.2534 24.8784 82.3744 23.9994 81.2484 23.9994C80.1064 23.9994 79.2434 24.8784 79.2434 26.1024C79.2434 27.2964 80.1224 28.2064 81.2484 28.2064M81.2484 23.3984C82.7724 23.3984 83.9304 24.5024 83.9304 26.1024C83.9304 27.6644 82.7724 28.8074 81.2484 28.8074C79.7234 28.8074 78.5664 27.7024 78.5664 26.1024C78.5664 24.5774 79.6864 23.3984 81.2484 23.3984" fill="white"/>
<path fill-rule="evenodd" clip-rule="evenodd" d="M84.9805 27.9804L85.3335 27.5524C85.6705 27.9514 86.2335 28.2064 86.6625 28.2064C87.3455 28.2064 87.8565 27.8524 87.8565 27.1994C87.8565 26.6804 87.4815 26.3414 86.8285 26.3414H86.2195V25.7424H86.7825C87.2255 25.7424 87.6535 25.3814 87.6535 24.8544C87.6535 24.2854 87.2405 23.9994 86.7005 23.9994C86.1825 23.9994 85.8205 24.2094 85.5055 24.5844L85.1305 24.1644C85.4825 23.7064 86.0845 23.3984 86.7685 23.3984C87.6765 23.3984 88.2925 23.9014 88.2925 24.7954C88.2925 25.2384 88.0445 25.7344 87.5345 25.9974V26.0194C88.1725 26.1404 88.4955 26.6584 88.4955 27.2594C88.4955 28.2284 87.6625 28.8064 86.7005 28.8064C85.8965 28.8064 85.2585 28.4014 84.9805 27.9804" fill="white"/>
<path fill-rule="evenodd" clip-rule="evenodd" d="M90.1855 23.4746H93.1145V24.0756H90.8235V28.7336H90.1855V23.4746Z" fill="white"/>
<path fill-rule="evenodd" clip-rule="evenodd" d="M94.57 26.5394H96.464L95.517 24.2924L94.57 26.5394ZM95.261 23.4434H95.809L98.07 28.7324H97.387L96.711 27.1394H94.315L93.646 28.7324H93L95.261 23.4434Z" fill="white"/>
</g>
</svg>
